<?xml version="1.0" standalone="no"?>
<!DOCTYPE svg PUBLIC "-//W3C//DTD SVG 20010904//EN"
 "http://www.w3.org/TR/2001/REC-SVG-20010904/DTD/svg10.dtd">
<svg version="1.0" xmlns="http://www.w3.org/2000/svg"
 width="512.000000pt" height="512.000000pt" viewBox="0 0 512.000000 512.000000"
 preserveAspectRatio="xMidYMid meet">
<metadata>
Created by potrace 1.16, written by Peter Selinger 2001-2019
</metadata>
<g transform="translate(0.000000,512.000000) scale(0.100000,-0.100000)"
fill="#ffffff" stroke="none">
<path d="M2340 5105 c-358 -80 -601 -303 -707 -650 -27 -89 -27 -93 -31 -432
l-3 -343 -320 0 -319 0 0 -1840 0 -1840 1600 0 1600 0 0 1840 0 1840 -319 0
-320 0 -3 343 c-4 339 -4 343 -31 432 -98 320 -314 536 -632 631 -80 24 -109
27 -270 30 -131 3 -198 0 -245 -11z m453 -348 c236 -82 371 -262 397 -535 5
-53 10 -197 10 -319 l0 -223 -641 0 -642 0 6 293 c4 253 8 302 26 370 60 226
199 367 423 427 111 30 314 24 421 -13z m-73 -1777 c0 -132 1 -140 19 -140 36
0 165 -52 227 -92 135 -85 222 -222 240 -377 l7 -61 -157 0 c-142 0 -156 2
-156 18 0 77 -65 158 -156 192 -120 45 -257 34 -369 -29 -118 -67 -154 -229
-68 -315 53 -53 99 -77 319 -167 231 -94 334 -145 412 -206 148 -115 210 -248
199 -428 -13 -210 -126 -378 -322 -475 -45 -22 -107 -46 -138 -52 l-57 -12 0
-138 0 -138 -160 0 -159 0 -3 141 -3 141 -70 22 c-248 79 -415 267 -441 499
l-7 57 155 0 155 0 7 -41 c20 -127 123 -209 302 -240 163 -28 338 32 400 137
60 101 39 217 -49 283 -67 50 -100 66 -306 151 -300 122 -411 189 -496 297
-61 79 -86 148 -92 258 -14 249 133 460 382 547 l65 23 0 142 0 143 160 0 160
0 0 -140z"/>
</g>
</svg>
