<?xml version="1.0" standalone="no"?>
<!DOCTYPE svg PUBLIC "-//W3C//DTD SVG 20010904//EN"
 "http://www.w3.org/TR/2001/REC-SVG-20010904/DTD/svg10.dtd">
<svg version="1.0" xmlns="http://www.w3.org/2000/svg"
 width="512.000000pt" height="512.000000pt" viewBox="0 0 512.000000 512.000000"
 preserveAspectRatio="xMidYMid meet">
<metadata>
Created by potrace 1.16, written by Peter Selinger 2001-2019
</metadata>
<g transform="translate(0.000000,512.000000) scale(0.100000,-0.100000)"
fill="#ffffff" stroke="none">
<path d="M4370 4688 c-27 -7 -117 -93 -401 -381 l-366 -371 -109 46 c-471 200
-903 252 -1344 162 -590 -121 -1240 -513 -1791 -1081 -234 -242 -359 -422
-359 -518 0 -99 115 -268 340 -499 216 -221 424 -395 667 -558 l112 -74 -216
-215 c-118 -118 -266 -269 -328 -336 -98 -105 -114 -128 -125 -173 -24 -99 23
-200 113 -245 61 -30 134 -33 190 -7 25 11 168 147 406 386 l368 369 99 -43
c216 -93 471 -163 697 -190 143 -18 461 -8 603 19 585 110 1216 463 1743 976
288 280 451 507 451 629 0 187 -496 706 -1012 1059 -37 25 -75 50 -84 55 -15
9 29 58 297 331 181 186 321 338 331 359 10 21 18 62 18 95 0 155 -140 251
-300 205z m-1673 -1079 c43 -5 116 -22 163 -36 92 -27 263 -109 258 -123 -2
-4 -325 -335 -718 -734 -563 -572 -717 -723 -726 -713 -20 20 -90 167 -112
232 -58 171 -68 422 -24 587 139 521 635 858 1159 787z m801 -570 c84 -166
117 -322 109 -519 -7 -181 -49 -330 -138 -481 -145 -249 -375 -419 -668 -496
-132 -35 -335 -37 -463 -5 -104 26 -225 72 -290 110 l-48 28 717 727 c394 400
721 726 727 724 6 -2 30 -41 54 -88z"/>
</g>
</svg>
