<?xml version="1.0" standalone="no"?>
<!DOCTYPE svg PUBLIC "-//W3C//DTD SVG 20010904//EN"
 "http://www.w3.org/TR/2001/REC-SVG-20010904/DTD/svg10.dtd">
<svg version="1.0" xmlns="http://www.w3.org/2000/svg"
 width="512.000000pt" height="512.000000pt" viewBox="0 0 512.000000 512.000000"
 preserveAspectRatio="xMidYMid meet">
<metadata>
Created by potrace 1.16, written by Peter Selinger 2001-2019
</metadata>
<g transform="translate(0.000000,512.000000) scale(0.100000,-0.100000)"
fill="#ffffff" stroke="none">
<path d="M2035 4474 c-91 -13 -239 -50 -328 -80 -455 -159 -822 -526 -981
-981 -68 -198 -81 -281 -81 -533 0 -252 13 -335 81 -533 159 -455 526 -822
981 -981 198 -68 281 -81 533 -81 246 0 303 8 490 67 95 30 253 102 342 155
l48 28 422 -421 c278 -277 438 -430 468 -445 39 -21 59 -24 150 -24 122 0 162
15 236 91 82 85 108 228 63 351 -20 54 -50 87 -448 486 l-426 428 28 47 c53
89 125 247 155 342 59 187 67 244 67 490 0 252 -13 335 -81 533 -157 450 -522
818 -969 977 -188 66 -279 82 -510 85 -115 2 -223 1 -240 -1z m325 -488 c229
-17 485 -140 666 -320 436 -437 436 -1135 0 -1572 -437 -436 -1135 -436 -1572
0 -436 437 -436 1135 0 1572 141 140 313 240 502 290 92 25 247 44 304 38 14
-2 59 -5 100 -8z"/>
<path d="M2152 3660 c-18 -11 -41 -34 -52 -52 -19 -31 -20 -51 -20 -300 l0
-268 -267 0 c-250 0 -270 -1 -301 -20 -48 -30 -72 -75 -72 -140 0 -65 24 -110
72 -140 31 -19 51 -20 301 -20 l267 0 0 -267 c0 -250 1 -270 20 -301 30 -48
75 -72 140 -72 65 0 110 24 140 72 19 31 20 51 20 301 l0 267 268 0 c249 0
269 1 300 20 48 30 72 75 72 140 0 65 -24 110 -72 140 -31 19 -51 20 -300 20
l-268 0 0 268 c0 249 -1 269 -20 300 -30 48 -75 72 -140 72 -37 0 -66 -6 -88
-20z"/>
</g>
</svg>
