<?xml version="1.0" standalone="no"?>
<!DOCTYPE svg PUBLIC "-//W3C//DTD SVG 20010904//EN"
 "http://www.w3.org/TR/2001/REC-SVG-20010904/DTD/svg10.dtd">
<svg version="1.0" xmlns="http://www.w3.org/2000/svg"
 width="512.000000pt" height="512.000000pt" viewBox="0 0 512.000000 512.000000"
 preserveAspectRatio="xMidYMid meet">
<metadata>
Created by potrace 1.16, written by Peter Selinger 2001-2019
</metadata>
<g transform="translate(0.000000,512.000000) scale(0.100000,-0.100000)"
fill="#ffffff" stroke="none">
<path d="M2385 4781 c-213 -61 -388 -237 -445 -446 l-17 -60 -63 -27 -64 -26
-39 25 c-106 67 -268 100 -406 83 -155 -20 -267 -75 -377 -184 -109 -110 -166
-225 -185 -379 -17 -134 20 -308 85 -408 l24 -36 -27 -63 -26 -63 -60 -17
c-213 -58 -394 -242 -449 -456 -21 -81 -21 -247 0 -328 55 -214 236 -398 449
-456 l60 -17 26 -63 27 -63 -24 -36 c-66 -102 -102 -277 -84 -411 21 -157 75
-266 184 -376 131 -131 297 -191 495 -181 113 6 182 25 276 75 l53 29 63 -26
62 -26 17 -60 c44 -163 167 -315 316 -392 106 -55 180 -73 304 -73 124 0 198
18 305 73 148 77 271 229 315 392 l17 60 63 26 63 27 46 -28 c106 -65 271 -98
403 -80 155 21 265 76 374 184 109 110 162 219 184 376 18 134 -18 309 -84
411 l-24 36 27 63 26 63 60 17 c163 44 315 167 392 315 55 107 73 181 73 305
0 124 -18 198 -73 305 -77 148 -229 271 -392 315 l-60 17 -26 63 -27 63 28 46
c88 144 109 365 50 536 -51 149 -168 283 -307 353 -115 57 -209 76 -342 69
-117 -6 -206 -30 -282 -77 l-46 -28 -63 27 -63 26 -17 60 c-58 213 -242 394
-456 449 -84 22 -259 20 -339 -3z m313 -341 c104 -52 164 -145 177 -271 7 -70
29 -118 67 -143 13 -9 101 -47 195 -86 198 -81 246 -88 304 -45 131 96 168
110 274 103 262 -17 381 -319 206 -520 -74 -86 -72 -124 23 -351 41 -98 83
-188 93 -199 29 -32 64 -46 134 -53 125 -13 217 -74 269 -177 26 -52 30 -72
30 -138 0 -66 -4 -86 -30 -138 -52 -103 -144 -164 -270 -177 -70 -8 -105 -22
-133 -53 -10 -11 -52 -101 -93 -199 -95 -227 -97 -265 -23 -351 132 -152 103
-372 -64 -478 -116 -75 -270 -61 -379 35 -86 74 -123 72 -352 -24 -98 -40
-187 -82 -198 -92 -32 -29 -46 -65 -53 -134 -14 -126 -74 -218 -180 -270 -53
-26 -75 -31 -135 -31 -169 0 -296 122 -315 301 -7 69 -21 105 -53 134 -11 10
-100 52 -198 92 -238 100 -252 100 -373 8 -124 -93 -315 -80 -417 29 -116 122
-118 300 -5 430 74 86 72 123 -24 352 -40 98 -82 187 -92 198 -28 32 -63 45
-133 52 -81 9 -177 54 -221 103 -17 21 -43 61 -57 91 -21 47 -24 65 -20 136 9
167 107 271 280 296 92 14 123 26 151 60 13 15 55 106 95 203 92 226 94 260
19 347 -129 148 -99 373 65 476 53 34 149 57 201 49 57 -9 135 -46 177 -82 87
-75 122 -73 343 17 94 39 182 77 195 86 38 25 60 73 67 143 13 126 73 219 177
271 52 26 72 30 138 30 66 0 86 -4 138 -30z"/>
<path d="M2360 3340 c-41 -11 -118 -41 -170 -67 -81 -40 -109 -62 -195 -148
-86 -86 -108 -114 -148 -195 -65 -130 -87 -224 -87 -370 0 -146 22 -240 87
-370 40 -81 62 -109 148 -195 86 -86 114 -108 195 -148 120 -60 227 -87 339
-87 68 0 93 4 119 20 48 30 72 75 72 140 0 101 -54 154 -169 165 -142 14 -226
50 -314 134 -102 97 -147 202 -147 341 0 136 50 250 148 342 94 88 194 128
322 128 132 0 229 -39 323 -129 101 -96 147 -202 147 -340 0 -90 -19 -160 -66
-250 -19 -35 -34 -78 -34 -95 0 -46 40 -117 79 -143 63 -42 170 -24 219 36 30
36 93 181 112 255 14 57 20 112 20 196 0 146 -22 240 -87 370 -40 81 -62 109
-148 195 -86 86 -114 108 -195 148 -133 66 -224 87 -374 86 -85 0 -143 -6
-196 -19z"/>
</g>
</svg>
