<?xml version="1.0" standalone="no"?>
<!DOCTYPE svg PUBLIC "-//W3C//DTD SVG 20010904//EN"
 "http://www.w3.org/TR/2001/REC-SVG-20010904/DTD/svg10.dtd">
<svg version="1.0" xmlns="http://www.w3.org/2000/svg"
 width="512.000000pt" height="512.000000pt" viewBox="0 0 512.000000 512.000000"
 preserveAspectRatio="xMidYMid meet">
<metadata>
Created by potrace 1.16, written by Peter Selinger 2001-2019
</metadata>
<g transform="translate(0.000000,512.000000) scale(0.100000,-0.100000)"
fill="#ffffff" stroke="none">
<path d="M1935 4144 c-438 -77 -814 -354 -1010 -745 -83 -167 -145 -395 -145
-536 0 -41 -1 -42 -37 -48 -21 -3 -67 -13 -102 -21 -300 -70 -545 -311 -622
-612 -27 -106 -27 -318 1 -428 75 -297 324 -543 620 -614 84 -20 114 -20 1947
-20 1289 0 1878 3 1915 11 238 48 434 203 539 425 50 105 70 203 70 334 0 181
-58 340 -175 482 -90 109 -245 209 -373 242 l-47 12 -2 130 c-1 96 -7 150 -23
209 -86 324 -341 564 -670 630 -101 21 -295 16 -381 -9 -30 -8 -64 -18 -76
-21 -16 -5 -29 5 -64 52 -204 270 -534 466 -889 528 -106 19 -367 18 -476 -1z
m840 -829 c33 -9 83 -26 110 -38 55 -22 255 -136 255 -144 0 -5 -78 -137 -130
-219 l-26 -42 -89 54 c-118 70 -189 95 -300 101 -161 10 -303 -43 -416 -156
-62 -62 -121 -151 -100 -151 5 0 51 16 102 36 51 20 95 32 96 27 2 -4 28 -69
57 -143 l53 -134 -350 -138 c-192 -76 -351 -137 -353 -135 -13 12 -272 693
-266 698 8 9 259 109 271 109 4 0 26 -45 47 -100 21 -55 42 -100 45 -100 3 0
13 17 23 38 33 68 104 159 185 234 118 109 278 189 439 218 69 13 278 3 347
-15z m798 -932 c75 -191 133 -351 129 -354 -8 -8 -258 -109 -270 -109 -4 0
-25 45 -46 100 -21 55 -43 100 -47 100 -4 0 -10 -9 -14 -20 -26 -83 -194 -271
-306 -342 -149 -95 -277 -132 -459 -132 -143 -1 -198 8 -310 52 -58 23 -242
122 -264 142 -4 5 27 67 71 138 l80 131 88 -55 c131 -80 196 -99 330 -99 89 0
123 5 178 24 84 29 172 87 232 153 48 54 92 128 76 128 -5 0 -51 -16 -102 -36
-51 -20 -95 -32 -96 -27 -2 4 -28 69 -57 143 l-53 134 346 137 c190 76 349
138 352 138 3 1 67 -155 142 -346z"/>
</g>
</svg>
